<svg xmlns="http://www.w3.org/2000/svg" viewBox="0 0 512 512">
  <rect width="512" height="512" rx="96" fill="#C8902B"/>
  <path d="M256 88c-58 0-104 24-112 56-3 12-2 24 3 36 12 28 24 80 30 124 4 28 16 60 39 60 22 0 27-24 32-52 5-26 12-40 21-40s16 14 21 40c5 28 10 52 32 52 23 0 35-32 39-60 6-44 18-96 30-124 5-12 6-24 3-36-8-32-54-56-138-56-1 0 0 0 0 0z" fill="#FFFFFF"/>
  <path d="M256 88c-58 0-104 24-112 56-3 12-2 24 3 36 4 9 9 23 13 38 15-8 35-13 55-13 22 0 35 6 44 14 9-8 22-14 44-14 20 0 40 5 55 13 4-15 9-29 13-38 5-12 6-24 3-36-8-32-54-56-138-56z" fill="#F3F4F6"/>
</svg>
